<?xml version="1.0" encoding="UTF-8"?>
<svg version="1.1" xmlns="http://www.w3.org/2000/svg" width="2000" height="2000">
<path d="M0 0 C660 0 1320 0 2000 0 C2000 660 2000 1320 2000 2000 C1340 2000 680 2000 0 2000 C0 1340 0 680 0 0 Z " fill="#FEFEFE" transform="translate(0,0)"/>
<path d="M0 0 C1.12422363 0.18272461 2.24844727 0.36544922 3.40673828 0.55371094 C52.60375628 8.61749346 99.14194311 27.80678474 144 49 C144.87350098 49.41072754 145.74700195 49.82145508 146.64697266 50.24462891 C177.16366546 64.69684104 205.05361957 84.27299272 229.8984375 107.08203125 C231.79309004 108.81116582 233.72829012 110.47009293 235.6875 112.125 C245.10604073 120.33258549 253.9643075 129.44212787 262 139 C262.85335937 139.96421875 263.70671875 140.9284375 264.5859375 141.921875 C285.67562504 165.8362639 303.37458303 193.18280019 317 222 C317.53923096 223.13429443 317.53923096 223.13429443 318.08935547 224.29150391 C333.26416744 256.43840493 342.08080674 289.71265858 346 325 C346.1016748 325.91354248 346.20334961 326.82708496 346.30810547 327.76831055 C348.41930419 348.61122346 346.9287392 369.3279825 344 390 C343.78084403 391.66791546 343.56206562 393.33588059 343.34375 395.00390625 C341.56263045 407.90157588 338.3272129 420.42568593 335 433 C335.6305127 433.24596924 336.26102539 433.49193848 336.91064453 433.74536133 C366.12558387 445.26601093 387.19322843 462.97034035 400 492 C401.56534618 495.95261455 402.87173357 499.90261138 404 504 C404.22429688 504.74507812 404.44859375 505.49015625 404.6796875 506.2578125 C410.31768449 528.42363629 403.87334368 551.47206104 393.37890625 571.01953125 C380.98066045 591.80220227 360.0991949 607.98660904 337 615 C311.5140031 621.22362386 286.22830282 617.59150525 263.703125 604.08251953 C251.44031339 596.28818084 240.76310117 585.2142991 233 573 C232.52401367 573.36279053 232.04802734 573.72558105 231.55761719 574.09936523 C195.73583711 601.20926752 156.26872293 622.71243595 116.43164062 643.22753906 C113.19403131 644.89978178 109.9630467 646.58401626 106.734375 648.2734375 C94.85563637 654.47519583 82.92304532 660.5539746 70.9296875 666.53125 C69.75724991 667.11582474 68.58481232 667.70039948 67.37684631 668.3026886 C61.47556169 671.24406392 55.57120029 674.17905142 49.6628418 677.10620117 C35.59518357 684.09275647 21.71488291 691.34362185 8 699 C7.33332306 699.37128021 6.66664612 699.74256042 5.97976685 700.12509155 C-7.54396762 707.6707954 -20.79118474 715.51654925 -33.54296875 724.30712891 C-38.53506174 727.74663336 -43.55099412 731.15137286 -48.5625 734.5625 C-49.63790039 735.29476807 -50.71330078 736.02703613 -51.82128906 736.78149414 C-66.91483554 747.04266014 -82.25498453 756.76697499 -98 766 C-98.99386719 766.58297852 -98.99386719 766.58297852 -100.0078125 767.17773438 C-104.62698208 769.86902879 -109.29768211 772.4570748 -114 775 C-114.95729004 775.51820313 -115.91458008 776.03640625 -116.90087891 776.5703125 C-162.42233544 801.05337983 -211.69933166 820.19093764 -263.97998047 820.18530273 C-266.23294151 820.18748349 -268.48540653 820.20570035 -270.73828125 820.22460938 C-284.64603629 820.28060943 -298.03296122 818.93454904 -311.5 815.25 C-312.478479 814.98687012 -313.45695801 814.72374023 -314.46508789 814.45263672 C-347.35546379 805.39301222 -375.5949055 787.59653256 -400 764 C-400.65323242 763.36868164 -401.30646484 762.73736328 -401.97949219 762.08691406 C-410.18669985 754.11143933 -418.00255317 746.07554766 -425 737 C-426.08728088 735.62790623 -427.1759387 734.25690297 -428.265625 732.88671875 C-435.93617753 723.19654843 -443.20656201 713.32379042 -450 703 C-450.47115234 702.28827637 -450.94230469 701.57655273 -451.42773438 700.84326172 C-464.32276213 681.25538745 -475.34221516 660.80183607 -484 639 C-484.3108252 638.2255957 -484.62165039 637.45119141 -484.94189453 636.65332031 C-487.66800698 629.81966917 -490.17037193 623.37237674 -491 616 C-493.31 616 -495.62 616 -498 616 C-500.66287545 610.29831374 -502.24680043 604.59921284 -503.75 598.5 C-505.77771204 590.49216908 -507.98049727 582.57404 -510.4375 574.6875 C-512.87526054 566.83131099 -515.14134065 558.95085675 -517.25 551 C-520.33038089 539.38578969 -523.55149197 527.81461421 -526.8125 516.25 C-527.1766803 514.95521729 -527.1766803 514.95521729 -527.54821777 513.63427734 C-528.24533096 511.15675527 -528.94454611 508.679837 -529.64453125 506.203125 C-529.85259903 505.46354553 -530.06066681 504.72396606 -530.27503967 503.9619751 C-530.47278488 503.26457214 -530.67053009 502.56716919 -530.87426758 501.84863281 C-531.04412674 501.247547 -531.2139859 500.64646118 -531.38899231 500.02716064 C-532.20143684 497.33168625 -533.10125352 494.66775394 -534 492 C-534.13701324 492.82430008 -534.27402649 493.64860016 -534.41519165 494.49787903 C-535.73689888 502.44855768 -537.05948387 510.39908978 -538.38294411 518.34947681 C-539.0625471 522.43221038 -539.74186426 526.51499099 -540.42041016 530.59790039 C-543.19416812 547.28653097 -545.97911305 563.97319485 -548.82862473 580.64908409 C-549.07758157 582.10620112 -549.32615905 583.56338303 -549.57429886 585.02063942 C-549.69074123 585.70394514 -549.80718361 586.38725086 -549.92715454 587.09126282 C-550.02753336 587.68089971 -550.12791218 588.27053659 -550.23133278 588.87804127 C-551.73665931 597.60615452 -553.36702969 606.290825 -555 615 C-569.52 615 -584.04 615 -599 615 C-597.87508568 603.75085676 -597.87508568 603.75085676 -597.0637207 599.7668457 C-596.79223206 598.41474251 -596.79223206 598.41474251 -596.51525879 597.0353241 C-596.3207312 596.09167496 -596.12620361 595.14802582 -595.92578125 594.17578125 C-595.72150513 593.16425491 -595.517229 592.15272858 -595.3067627 591.11054993 C-594.87130294 588.95675586 -594.43368147 586.80339788 -593.99404907 584.65045166 C-593.07116728 580.13054996 -592.15894984 575.60851702 -591.2462616 571.08654785 C-590.79171352 568.83473386 -590.33664851 566.58302416 -589.88105774 564.3314209 C-588.14988607 555.77036721 -586.46092698 547.20236901 -584.8125 538.625 C-584.58272461 537.43068359 -584.35294922 536.23636719 -584.11621094 535.00585938 C-583.65336209 532.59852459 -583.19079693 530.19113524 -582.72851562 527.78369141 C-581.49670262 521.38602453 -580.25149197 514.99096733 -579.00680542 508.59579468 C-578.56551616 506.32800013 -578.12462048 504.0601294 -577.68383789 501.79223633 C-576.31968852 494.77471488 -574.95341078 487.75762261 -573.58067322 480.74177551 C-572.95345416 477.53539176 -572.32737553 474.32878576 -571.7013855 471.12216187 C-571.40729497 469.61735126 -571.1126645 468.11264605 -570.81741333 466.60806274 C-570.40288664 464.4954952 -569.98993819 462.38262936 -569.578125 460.26953125 C-569.44695786 459.59702835 -569.31579071 458.92452545 -569.1806488 458.23164368 C-568.47218536 454.56313199 -567.80045077 450.89057177 -567.16601562 447.20849609 C-566.96283722 446.03041634 -566.96283722 446.03041634 -566.7555542 444.82853699 C-566.49620167 443.31186808 -566.24056226 441.79455841 -565.98907471 440.27656555 C-565.10873381 435.10873381 -565.10873381 435.10873381 -564 434 C-562.49581261 433.90688111 -560.98728644 433.88253972 -559.48022461 433.88647461 C-558.03884377 433.88658791 -558.03884377 433.88658791 -556.56834412 433.88670349 C-555.00117393 433.89444542 -555.00117393 433.89444542 -553.40234375 433.90234375 C-551.80635094 433.90446617 -551.80635094 433.90446617 -550.17811584 433.90663147 C-546.76454917 433.91224936 -543.351047 433.92480489 -539.9375 433.9375 C-537.62955824 433.94251269 -535.32161545 433.947076 -533.01367188 433.95117188 C-527.34242574 433.9622246 -521.67121747 433.97898013 -516 434 C-515.83362534 434.55512772 -515.66725067 435.11025543 -515.49583435 435.6822052 C-514.7252462 438.25302815 -513.95442093 440.82377995 -513.18359375 443.39453125 C-512.92203491 444.26726685 -512.66047607 445.14000244 -512.39099121 446.03918457 C-510.83522665 451.22706563 -509.2706668 456.41217748 -507.69758606 461.59483337 C-505.15629709 469.96861285 -502.76938445 478.37810484 -500.4375 486.8125 C-496.63244895 501.73231098 -496.63244895 501.73231098 -491 516 C-490.71769531 514.8553125 -490.43539062 513.710625 -490.14453125 512.53125 C-480.5324382 475.49204044 -462.35832337 440.36730753 -442.66308594 407.76611328 C-440.97535799 404.95901439 -439.31584822 402.13697405 -437.6640625 399.30859375 C-430.69094243 387.37719987 -423.48197887 375.61876913 -416 364 C-415.63656494 363.43536041 -415.27312988 362.87072083 -414.89868164 362.28897095 C-406.92687835 349.91234125 -398.85185527 337.60428661 -390.75 325.3125 C-390.10937622 324.34033539 -389.46875244 323.36817078 -388.80871582 322.36654663 C-380.21247108 309.32667367 -371.5649085 296.33101822 -362.70019531 283.47167969 C-359.49065304 278.80576843 -356.3090892 274.12080047 -353.125 269.4375 C-352.43784912 268.42768066 -351.75069824 267.41786133 -351.04272461 266.37744141 C-346.63285053 259.89131543 -342.23943832 253.39428775 -337.85546875 246.890625 C-324.40027841 226.93210111 -310.88908308 207.0462979 -296.74438477 187.56689453 C-293.66737137 183.32683081 -290.63357061 179.06088531 -287.63696289 174.76367188 C-274.63773623 156.14392731 -260.61866153 138.16582296 -246.17578125 120.64453125 C-244.70570416 118.85774096 -243.24497028 117.06322861 -241.79296875 115.26171875 C-237.22170878 109.60168232 -232.49175653 104.14511692 -227.5546875 98.80078125 C-225.5544784 96.60789146 -223.59239085 94.39502193 -221.64453125 92.15625 C-212.01740005 81.12321493 -201.92948459 70.73884241 -191 61 C-190.18015625 60.21882812 -189.3603125 59.43765625 -188.515625 58.6328125 C-179.66830876 50.25259059 -169.86149168 43.13123568 -160 36 C-159.33983887 35.51998535 -158.67967773 35.0399707 -157.99951172 34.54541016 C-141.61560935 22.75199616 -123.13315412 13.40239006 -104 7 C-103.21544434 6.73493652 -102.43088867 6.46987305 -101.62255859 6.19677734 C-68.85288616 -4.61780125 -33.85097213 -5.91316644 0 0 Z " fill="#FEDD58" transform="translate(1023,669)"/>
<path d="M0 0 C1.85625 -0.02416992 1.85625 -0.02416992 3.75 -0.04882812 C28.62491418 -0.06192019 49.78634282 11.73440518 67.3125 28.6875 C79.11993473 40.81002077 87.13829354 56.01867127 91.625 72.3125 C91.84929687 73.05757812 92.07359375 73.80265625 92.3046875 74.5703125 C97.94268449 96.73613629 91.49834368 119.78456104 81.00390625 139.33203125 C68.60566045 160.11470227 47.7241949 176.29910904 24.625 183.3125 C-0.8609969 189.53612386 -26.14669718 185.90400525 -48.671875 172.39501953 C-53.28602316 169.46223098 -57.35278569 165.99802671 -61.375 162.3125 C-62.28894531 161.49136719 -63.20289063 160.67023438 -64.14453125 159.82421875 C-75.43087225 149.16928144 -82.95553086 136.8064291 -88.375 122.3125 C-88.84873047 121.08080078 -88.84873047 121.08080078 -89.33203125 119.82421875 C-90.10908508 117.66913842 -90.77163614 115.5221703 -91.375 113.3125 C-91.57996094 112.56871094 -91.78492188 111.82492187 -91.99609375 111.05859375 C-97.3807128 87.32913462 -91.59619579 64.30538646 -79.34765625 43.84765625 C-65.8348314 23.08772981 -44.11026995 6.75937903 -19.7734375 1.14453125 C-13.21369076 -0.06239197 -6.65036048 -0.01721108 0 0 Z " fill="#010101" transform="translate(1335.375,1100.6875)"/>
<path d="M0 0 C0.85049423 0.00222061 1.70098846 0.00444122 2.57725525 0.00672913 C4.01863609 0.00684242 4.01863609 0.00684242 5.48913574 0.00695801 C7.05630592 0.01469994 7.05630592 0.01469994 8.65513611 0.02259827 C9.71913132 0.02401321 10.78312653 0.02542816 11.87936401 0.02688599 C15.29293069 0.03250388 18.70643286 0.04505941 22.11997986 0.05775452 C24.42792162 0.06276721 26.73586441 0.06733052 29.04380798 0.07142639 C34.71505412 0.08247912 40.38626238 0.09923465 46.05747986 0.12025452 C46.22385452 0.67538223 46.39022919 1.23050995 46.56164551 1.80245972 C47.33223366 4.37328267 48.10305893 6.94403447 48.87388611 9.51478577 C49.13544495 10.38752136 49.39700378 11.26025696 49.66648865 12.15943909 C51.22197866 17.34640463 52.78626457 22.53060067 54.35906982 27.71234131 C56.83756964 35.8793476 59.16482221 44.07985176 61.43247986 52.30775452 C64.05803394 61.80646777 66.94518257 71.19293013 69.99302673 80.56385803 C74.66675633 94.98322135 78.92103391 109.538238 83.05747986 124.12025452 C85.84279555 118.13853738 87.58640453 112.04280042 89.30747986 105.68275452 C89.92226867 103.44937944 90.53818416 101.21631426 91.15513611 98.98353577 C91.46853943 97.84738831 91.78194275 96.71124084 92.10484314 95.54066467 C96.29406305 80.49941124 100.72143857 65.51508133 105.49107361 50.64759827 C108.20039832 42.18085187 110.74891445 33.72376809 112.98326111 25.11634827 C114.30065805 20.12933634 115.77116251 15.18788128 117.24497986 10.24525452 C117.63846619 8.91409607 117.63846619 8.91409607 118.03990173 7.55604553 C118.2867572 6.73418762 118.53361267 5.91232971 118.78794861 5.06556702 C119.00862 4.3283844 119.22929138 3.59120178 119.45664978 2.8316803 C120.05747986 1.12025452 120.05747986 1.12025452 121.05747986 0.12025452 C122.56166725 0.02713562 124.07019342 0.00279424 125.57725525 0.00672913 C127.01863609 0.00684242 127.01863609 0.00684242 128.48913574 0.00695801 C130.05630592 0.01469994 130.05630592 0.01469994 131.65513611 0.02259827 C132.71913132 0.02401321 133.78312653 0.02542816 134.87936401 0.02688599 C138.29293069 0.03250388 141.70643286 0.04505941 145.11997986 0.05775452 C147.42792162 0.06276721 149.73586441 0.06733052 152.04380798 0.07142639 C157.71505412 0.08247912 163.38626238 0.09923465 169.05747986 0.12025452 C172.90019996 19.59952818 176.73951126 39.07701053 180.24497986 58.62025452 C182.09133199 68.90447411 184.02172797 79.16554725 186.09776306 89.40614319 C188.23054102 99.9272318 190.27734452 110.46443147 192.31748962 121.00379944 C192.61620419 122.54653028 192.91495115 124.08925485 193.21372986 125.63197327 C193.43783791 126.78937263 193.43783791 126.78937263 193.66647339 127.97015381 C194.61172056 132.84421363 195.56815178 137.7159477 196.53291321 142.58618164 C197.17988961 145.85322238 197.82351259 149.12092019 198.46696472 152.38865662 C198.77320942 153.93897271 199.08106684 155.48897126 199.39067078 157.03862 C199.82293186 159.20303373 200.24934892 161.36852987 200.67466736 163.53431702 C200.91813904 164.76102112 201.16161072 165.98772522 201.41246033 167.25160217 C202.1780674 171.84350591 202.59426109 176.48806686 203.05747986 181.12025452 C188.53747986 181.12025452 174.01747986 181.12025452 159.05747986 181.12025452 C158.1280658 175.50896545 157.19865173 169.89767639 156.24107361 164.11634827 C155.63523539 160.46591042 155.0292414 156.81549968 154.42271423 153.16517639 C153.46935286 147.42737971 152.51643292 141.68951349 151.56700134 135.95106506 C147.26746663 109.96929634 142.78454936 84.02776355 138.05747986 58.12025452 C134.78539778 69.73415017 131.51542986 81.34610257 128.41758728 93.00794983 C125.74448949 103.0690559 122.91275466 113.0525704 119.82969666 122.99549866 C116.39937808 134.12423456 113.29939338 145.34533999 110.17076111 156.56166077 C104.6627261 176.30451579 104.6627261 176.30451579 103.05747986 181.12025452 C89.85747986 181.12025452 76.65747986 181.12025452 63.05747986 181.12025452 C51.36729865 139.69948898 51.36729865 139.69948898 47.34043884 125.26307678 C45.98233817 120.39954225 44.60804713 115.54106421 43.21763611 110.68666077 C41.57270965 104.93980427 39.94763492 99.18760678 38.33091736 93.43275452 C38.09479233 92.59285477 37.8586673 91.75295502 37.61538696 90.88760376 C36.63889593 87.41411073 35.66250629 83.94059157 34.68833923 80.46644592 C33.96635203 77.89234249 33.24253778 75.31875855 32.51841736 72.74525452 C32.30067657 71.9670636 32.08293579 71.18887268 31.8585968 70.38710022 C31.65143036 69.65193176 31.44426392 68.91676331 31.2308197 68.15931702 C31.05191193 67.52203674 30.87300415 66.88475647 30.68867493 66.22816467 C29.87306543 63.50439254 28.9660754 60.81423357 28.05747986 58.12025452 C27.92046661 58.9445546 27.78345337 59.76885468 27.64228821 60.61813354 C26.32058098 68.56881219 24.99799599 76.51934429 23.67453575 84.46973133 C22.99493276 88.5524649 22.3156156 92.6352455 21.6370697 96.71815491 C18.86331174 113.40678549 16.07836681 130.09344937 13.22885513 146.76933861 C12.97989829 148.22645564 12.73132081 149.68363755 12.483181 151.14089394 C12.36673862 151.82419966 12.25029625 152.50750538 12.13032532 153.21151733 C12.0299465 153.80115422 11.92956768 154.39079111 11.82614708 154.99829578 C10.32082055 163.72640904 8.69045017 172.41107951 7.05747986 181.12025452 C-7.46252014 181.12025452 -21.98252014 181.12025452 -36.94252014 181.12025452 C-35.81760582 169.87111128 -35.81760582 169.87111128 -35.00624084 165.88710022 C-34.82524841 164.98569809 -34.64425598 164.08429596 -34.45777893 163.15557861 C-34.26325134 162.21192947 -34.06872375 161.26828033 -33.86830139 160.29603577 C-33.66402527 159.28450943 -33.45974915 158.27298309 -33.24928284 157.23080444 C-32.81382308 155.07701038 -32.37620161 152.9236524 -31.93656921 150.77070618 C-31.01368742 146.25080448 -30.10146998 141.72877154 -29.18878174 137.20680237 C-28.73423366 134.95498838 -28.27916865 132.70327868 -27.82357788 130.45167542 C-26.09240622 121.89062172 -24.40344712 113.32262352 -22.75502014 104.74525452 C-22.52524475 103.55093811 -22.29546936 102.3566217 -22.05873108 101.12611389 C-21.59588223 98.71877911 -21.13331707 96.31138976 -20.67103577 93.90394592 C-19.43922276 87.50627904 -18.19401211 81.11122185 -16.94932556 74.71604919 C-16.50803631 72.44825465 -16.06714062 70.18038392 -15.62635803 67.91249084 C-14.26220866 60.8949694 -12.89593092 53.87787713 -11.52319336 46.86203003 C-10.89597431 43.65564627 -10.26989567 40.44904028 -9.64390564 37.24241638 C-9.34981511 35.73760578 -9.05518464 34.23290057 -8.75993347 32.72831726 C-8.34540678 30.61574972 -7.93245833 28.50288387 -7.52064514 26.38978577 C-7.389478 25.71728287 -7.25831085 25.04477997 -7.12316895 24.35189819 C-6.4147055 20.68338651 -5.74297091 17.01082628 -5.10853577 13.32875061 C-4.9730835 12.54336411 -4.83763123 11.7579776 -4.69807434 10.9487915 C-4.43872181 9.4321226 -4.1830824 7.91481293 -3.93159485 6.39682007 C-2.87218501 0.17780676 -2.87218501 0.17780676 0 0 Z " fill="#010101" transform="translate(460.94252014160156,1102.8797454833984)"/>
<path d="M0 0 C13.2 0 26.4 0 40 0 C49.03515625 16.3762207 49.03515625 16.3762207 58.0703125 32.75244141 C58.40102249 33.35185043 58.73173248 33.95125946 59.07246399 34.5688324 C59.73196871 35.76419042 60.39146376 36.95955377 61.0509491 38.15492249 C62.69690581 41.13831942 64.34303512 44.12162088 65.98950195 47.10473633 C69.0210544 52.59778395 72.05132955 58.09151788 75.07540894 63.58868408 C76.44959368 66.08642456 77.82474574 68.58363192 79.19995117 71.08081055 C80.12836309 72.76755942 81.05543808 74.45504397 81.98242188 76.14257812 C88.22877342 87.48304161 94.6278342 98.72616821 101 110 C101.33 73.7 101.66 37.4 102 0 C115.2 0 128.4 0 142 0 C142 59.73 142 119.46 142 181 C128.8 181 115.6 181 102 181 C99.06086508 176.29738413 96.22823031 171.73215833 93.57421875 166.89453125 C92.95095703 165.76144531 92.32769531 164.62835937 91.68554688 163.4609375 C91.01951275 162.2448018 90.35349765 161.02865568 89.6875 159.8125 C88.98136349 158.52720983 88.2749782 157.24205632 87.56835938 155.95703125 C86.10369545 153.29300615 84.64009266 150.62840233 83.17724609 147.96337891 C80.12236641 142.39990351 77.05446257 136.84362361 73.98672485 131.28723145 C72.3344904 128.29457817 70.68278934 125.30163068 69.03125 122.30859375 C68.70284622 121.71345978 68.37444244 121.11832581 68.03608704 120.50515747 C65.95385203 116.73099741 63.87398045 112.95554363 61.7956543 109.17922974 C60.37279663 106.59411091 58.94912089 104.00944302 57.52539062 101.42480469 C56.54217959 99.63910616 55.56012627 97.85277034 54.578125 96.06640625 C50.13127939 87.99482095 45.57357665 80.00375913 41 72 C40.67 107.97 40.34 143.94 40 181 C26.8 181 13.6 181 0 181 C0 121.27 0 61.54 0 0 Z " fill="#010100" transform="translate(866,1103)"/>
<path d="M0 0 C2.63478519 2.43196278 5.16740528 4.94339255 7.68725586 7.49487305 C8.37432617 8.18323242 9.06139648 8.8715918 9.76928711 9.58081055 C16.64118497 16.93358613 27.68725586 31.01968283 27.68725586 41.49487305 C21.58628204 41.8179085 15.49034089 42.05282461 9.3828125 42.20898438 C7.30933919 42.27409851 5.23645699 42.36262931 3.16503906 42.47558594 C-13.65032329 43.36911685 -13.65032329 43.36911685 -18.09191895 40.24240112 C-20.57752573 37.60698614 -22.03726577 34.95952541 -23.66113281 31.70678711 C-27.64352992 23.96215794 -36.0806537 20.83067276 -43.96508789 18.22143555 C-44.73981445 17.98166992 -45.51454102 17.7419043 -46.31274414 17.49487305 C-47.79774414 16.99987305 -47.79774414 16.99987305 -49.31274414 16.49487305 C-66.19563715 14.98302931 -79.2609019 16.75249367 -92.88696289 27.4206543 C-102.66494279 35.78153566 -111.10644731 49.41090839 -112.52783203 62.47119141 C-113.57008911 80.42959671 -109.91107388 96.72815411 -98.12524414 110.74487305 C-89.55567954 119.78813217 -78.14421957 126.27977565 -65.55102539 127.09643555 C-63.57611595 127.13448109 -61.60040067 127.14158513 -59.62524414 127.11987305 C-58.06084595 127.10839233 -58.06084595 127.10839233 -56.46484375 127.09667969 C-43.69079524 126.73339461 -31.37386559 122.98658498 -22.31274414 113.49487305 C-17.66716681 107.81797755 -14.61984694 102.10907864 -11.31274414 95.49487305 C-26.49274414 95.49487305 -41.67274414 95.49487305 -57.31274414 95.49487305 C-57.31274414 85.26487305 -57.31274414 75.03487305 -57.31274414 64.49487305 C-27.61274414 64.49487305 2.08725586 64.49487305 32.68725586 64.49487305 C32.68725586 83.30077757 32.68725586 83.30077757 31.18725586 89.86987305 C31.01274902 90.65386475 30.83824219 91.43785645 30.65844727 92.24560547 C25.19229087 114.91994798 11.11334219 135.95062978 -8.49243164 148.8425293 C-27.16066851 159.77973732 -45.5069858 165.41624312 -67.31274414 164.49487305 C-68.16610352 164.47682617 -69.01946289 164.4587793 -69.89868164 164.44018555 C-93.37887297 163.2414971 -114.67750801 150.08933813 -130.64477539 133.5690918 C-147.44644286 114.80015993 -155.757586 89.52863791 -154.72680664 64.4987793 C-152.89789146 37.85690037 -138.8557018 15.001211 -119.03149414 -2.3449707 C-84.53090332 -29.75707806 -33.18225535 -29.46472188 0 0 Z " fill="#020200" transform="translate(1191.312744140625,1122.505126953125)"/>
<path d="M0 0 C2.62462244 -0.26697888 5.01065933 -0.34832984 7.6328125 -0.29296875 C8.76056595 -0.28660149 8.76056595 -0.28660149 9.91110229 -0.28010559 C12.31609685 -0.2632917 14.72025809 -0.22563624 17.125 -0.1875 C18.75389416 -0.17245659 20.38280144 -0.15876758 22.01171875 -0.14648438 C26.00813434 -0.11337954 30.00392582 -0.06158009 34 0 C40.67424921 16.0374453 47.27738381 32.10202669 53.79232788 48.20483398 C59.79544655 63.0423813 65.83176075 77.86625177 71.875 92.6875 C79.43073763 111.21947261 86.9652234 129.75981428 94.45849609 148.31713867 C95.09602022 149.89502293 95.73355254 151.47290389 96.37109375 153.05078125 C96.67204956 153.79670029 96.97300537 154.54261932 97.28308105 155.31114197 C98.8433497 159.1708917 100.42123099 163.02240159 102.02392578 166.86474609 C102.35086929 167.65036423 102.67781281 168.43598236 103.0146637 169.2454071 C103.63875538 170.74217147 104.26583621 172.2376941 104.89634705 173.73176575 C107 178.77877906 107 178.77877906 107 181 C92.81 181 78.62 181 64 181 C62.02 175.616875 60.04 170.23375 58 164.6875 C57.37351562 162.99197998 56.74703125 161.29645996 56.1015625 159.54956055 C55.60899189 158.20375344 55.11677988 156.85781501 54.625 155.51171875 C54.36589844 154.81453735 54.10679687 154.11735596 53.83984375 153.39904785 C52.76975187 150.45788759 52 148.15654274 52 145 C28.9 145.33 5.8 145.66 -18 146 C-21.90731267 157.14331068 -21.90731267 157.14331068 -25.80834961 168.28881836 C-26.29778602 169.68090711 -26.78743595 171.07292082 -27.27734375 172.46484375 C-27.53132935 173.19384888 -27.78531494 173.922854 -28.04699707 174.6739502 C-29.8859282 179.8859282 -29.8859282 179.8859282 -31 181 C-34.10251201 181.08874135 -37.1826812 181.11518455 -40.28515625 181.09765625 C-41.21597519 181.0962413 -42.14679413 181.09482635 -43.1058197 181.09336853 C-46.09141191 181.08775172 -49.07693029 181.0751964 -52.0625 181.0625 C-54.08137913 181.05748716 -56.10025943 181.05292388 -58.11914062 181.04882812 C-63.07945572 181.03777683 -68.03971532 181.02050095 -73 181 C-72.39218216 176.0454658 -70.85572218 171.75009246 -68.9296875 167.18359375 C-68.61725098 166.42828369 -68.30481445 165.67297363 -67.98291016 164.89477539 C-67.30709093 163.26292729 -66.62842144 161.63225727 -65.94720459 160.00265503 C-64.47702073 156.48536966 -63.02082952 152.96234176 -61.56350708 149.43971252 C-60.80909022 147.61668669 -60.05393559 145.793966 -59.29806519 143.97154236 C-56.07711251 136.20358494 -52.90673302 128.4159262 -49.75646973 120.61907959 C-48.23018752 116.84163152 -46.70118684 113.06528486 -45.171875 109.2890625 C-44.8494281 108.49283478 -44.5269812 107.69660706 -44.19476318 106.87625122 C-39.0542176 94.18995207 -33.87979403 81.51738882 -28.70977783 68.84307861 C-23.74624935 56.67471221 -18.79178278 44.50299457 -13.8828125 32.3125 C-13.48502594 31.32557663 -13.08723938 30.33865326 -12.67739868 29.32182312 C-10.81479889 24.70032999 -8.95539342 20.0776059 -7.10205078 15.45239258 C-6.44838581 13.82888097 -5.79458568 12.20542377 -5.140625 10.58203125 C-4.84898468 9.85036743 -4.55734436 9.11870361 -4.25686646 8.36486816 C-3.03509875 5.34063204 -1.81708132 2.72562197 0 0 Z " fill="#010100" transform="translate(741,1103)"/>
<path d="M0 0 C10.89779553 9.66767871 19.60096775 22.21065146 20.66796875 37.12890625 C21.13293445 52.24029149 16.39756512 65.42607019 6.64453125 77.0546875 C-3.6234581 87.8568497 -17.06073809 94.98206374 -32.04296875 95.4296875 C-46.84826749 95.03801293 -61.15335056 88.74887934 -71.54296875 78.1796875 C-81.52204294 67.01921158 -87.33834678 52.46325252 -86.87890625 37.49609375 C-85.3388103 22.29212324 -77.05572014 9.1593962 -65.57421875 -0.62890625 C-44.83191007 -15.6243124 -20.26574515 -16.10321579 0 0 Z " fill="#FDFDFD" transform="translate(1368.54296875,1151.8203125)"/>
<path d="M0 0 C-0.99 0.33 -1.98 0.66 -3 1 C-3.69643985 2.98982813 -4.354876 4.99294757 -5 7 C-6.53747825 10.0749565 -8.26339432 13.03387035 -10 16 C-10.48839355 16.83724609 -10.97678711 17.67449219 -11.47998047 18.53710938 C-20.28394553 33.4216948 -30.9347314 46.71356509 -42.64453125 59.421875 C-44.74810664 61.72429583 -46.78785037 64.06589306 -48.8125 66.4375 C-51.31129873 69.32118479 -53.90075013 71.74600009 -57 74 C-57.65134925 72.43979133 -58.29582964 70.87671421 -58.9375 69.3125 C-59.29714844 68.44238281 -59.65679688 67.57226562 -60.02734375 66.67578125 C-64.05725148 55.5894889 -62.62398983 43.64767389 -58 33 C-49.99260941 17.15986201 -38.07663531 7.82391405 -21.89453125 1.12890625 C-15.04234042 -1.06439986 -7.09743494 -0.15504105 0 0 Z " fill="#FCDB58" transform="translate(1344,1140)"/>
<path d="M0 0 C30.9483871 0 30.9483871 0 36.83984375 5.81640625 C37.38318359 6.68072266 37.38318359 6.68072266 37.9375 7.5625 C38.31777344 8.14128906 38.69804688 8.72007812 39.08984375 9.31640625 C41.28678496 13.38027603 41.70717854 17.49173683 41 22 C38.6798448 27.53036993 35.39021986 31.2475473 30 34 C28.68 34 27.36 34 26 34 C26.47421387 34.73114014 26.94842773 35.46228027 27.43701172 36.21557617 C29.20350197 38.9436587 30.96607422 41.67422082 32.72607422 44.40649414 C33.48689534 45.58588005 34.24924545 46.76428112 35.01318359 47.94165039 C36.11444392 49.63948655 37.21005753 51.34085248 38.3046875 53.04296875 C38.96452637 54.06414795 39.62436523 55.08532715 40.30419922 56.13745117 C41.83227537 58.71687715 42.98310309 61.18658521 44 64 C40.9375 64.625 40.9375 64.625 37 64 C32.82473633 59.93434946 30.23760577 54.46561333 27.53515625 49.36328125 C27.08624023 48.55294434 26.63732422 47.74260742 26.17480469 46.90771484 C25.28099896 45.28701119 24.42441669 43.64509756 23.61035156 41.98291016 C22.22391023 39.28522531 22.22391023 39.28522531 19 36 C15.04 35.67 11.08 35.34 7 35 C7 44.57 7 54.14 7 64 C4.69 64 2.38 64 0 64 C0 42.88 0 21.76 0 0 Z " fill="#070602" transform="translate(998,974)"/>
<path d="M0 0 C2.31 0 4.62 0 7 0 C12.67309465 10.83890811 17.49140735 22.04077089 22.375 33.25 C23.21455583 35.1706988 24.05439738 37.09127272 24.89453125 39.01171875 C26.93298283 43.67304684 28.96756601 48.33604517 31 53 C34.00343901 49.44149651 35.74263457 45.42189245 37.58203125 41.19140625 C37.91869308 40.42884018 38.25535492 39.66627411 38.60221863 38.88059998 C39.67716486 36.44333549 40.74509517 34.0030754 41.8125 31.5625 C43.21298712 28.37548375 44.61618741 25.18966542 46.01953125 22.00390625 C46.35800079 21.23414459 46.69647034 20.46438293 47.04519653 19.67129517 C49.95059398 13.07669121 52.94734494 6.52789592 56 0 C58.31 0 60.62 0 63 0 C63 21.12 63 42.24 63 64 C61.02 64 59.04 64 57 64 C56.67 48.16 56.34 32.32 56 16 C53.16871429 22.35319106 50.33827303 28.70674415 47.51000977 35.0612793 C46.54729513 37.22361203 45.58408133 39.38572258 44.62036133 41.54760742 C43.23648375 44.65225095 41.85439403 47.75768491 40.47265625 50.86328125 C40.04034195 51.83211746 39.60802765 52.80095367 39.16261292 53.79914856 C38.76227341 54.6998558 38.3619339 55.60056305 37.94946289 56.52856445 C37.41984703 57.71770195 37.41984703 57.71770195 36.87953186 58.93086243 C35.91231776 61.12955513 35.91231776 61.12955513 35 64 C32.69 64 30.38 64 28 64 C27.71390869 63.31711914 27.42781738 62.63423828 27.13305664 61.93066406 C25.77886076 58.70265472 24.42067259 55.47633808 23.0625 52.25 C22.61326172 51.1775 22.16402344 50.105 21.70117188 49 C17.3080234 38.57763396 12.64641271 28.32536158 8 18 C7.67 33.18 7.34 48.36 7 64 C4.69 64 2.38 64 0 64 C0 42.88 0 21.76 0 0 Z " fill="#080703" transform="translate(1166,974)"/>
<path d="M0 0 C2.72127482 1.36063741 2.7498266 2.58719432 3.72412109 5.43701172 C4.05141205 6.38244843 4.378703 7.32788513 4.71591187 8.30197144 C5.23938705 9.85019089 5.23938705 9.85019089 5.7734375 11.4296875 C6.32096176 13.01984177 6.32096176 13.01984177 6.87954712 14.64212036 C8.05163267 18.05074639 9.21356123 21.46273323 10.375 24.875 C11.53147372 28.25078348 12.6900036 31.62585498 13.84902954 35.00076294 C14.57005439 37.10268841 15.28922407 39.20525153 16.00619507 41.30856323 C18.00026604 47.14834681 20.07264866 52.94625967 22.26699829 58.71414185 C23 61 23 61 23 64 C8.15 64 -6.7 64 -22 64 C-21.2890157 59.73409423 -20.60239803 56.49388568 -19.17407227 52.53295898 C-18.80020889 51.48845078 -18.42634552 50.44394257 -18.04115295 49.36778259 C-17.63698654 48.25512527 -17.23282013 47.14246796 -16.81640625 45.99609375 C-16.40083969 44.84005142 -15.98527313 43.68400909 -15.55711365 42.49293518 C-14.23034463 38.80605164 -12.89641031 35.12180502 -11.5625 31.4375 C-10.66817144 28.95393745 -9.77428624 26.47021519 -8.88085938 23.98632812 C-7.24158653 19.43583579 -5.60184753 14.88552022 -3.95532227 10.33764648 C-3.62524673 9.42530746 -3.2951712 8.51296844 -2.95509338 7.57298279 C-2.01139941 5.03070955 -1.01831393 2.51320523 0 0 Z " fill="#FADA57" transform="translate(757,1151)"/>
<path d="M0 0 C2.05078125 0.03255208 4.1015625 0.06510417 6.15234375 0.09765625 C11.84050146 15.01699957 17.31617805 30.0091502 22.71484375 45.03515625 C23.03374573 45.92115509 23.35264771 46.80715393 23.68121338 47.72000122 C24.59142573 50.25016892 25.49928569 52.78116645 26.40625 55.3125 C26.68395737 56.08435638 26.96166473 56.85621277 27.24778748 57.65145874 C29.15234375 62.98229471 29.15234375 62.98229471 29.15234375 64.09765625 C26.51234375 64.09765625 23.87234375 64.09765625 21.15234375 64.09765625 C19.50234375 59.47765625 17.85234375 54.85765625 16.15234375 50.09765625 C6.58234375 49.76765625 -2.98765625 49.43765625 -12.84765625 49.09765625 C-13.50765625 52.06765625 -14.16765625 55.03765625 -14.84765625 58.09765625 C-15.48249692 60.10798502 -16.13537481 62.11344366 -16.84765625 64.09765625 C-19.48765625 64.09765625 -22.12765625 64.09765625 -24.84765625 64.09765625 C-22.66195991 56.47793728 -20.11415229 49.02089115 -17.43359375 41.5625 C-17.01848541 40.40263077 -16.60337708 39.24276154 -16.1756897 38.04774475 C-15.30460568 35.61608726 -14.43222097 33.18489534 -13.55859375 30.75415039 C-12.66242393 28.25938525 -11.76773395 25.7641608 -10.87597656 23.26782227 C-9.58567573 19.65663415 -8.29151626 16.04685357 -6.99609375 12.4375 C-6.59506439 11.31472153 -6.19403503 10.19194305 -5.78085327 9.03514099 C-5.41021759 8.00639359 -5.03958191 6.97764618 -4.65771484 5.91772461 C-4.33145111 5.00856796 -4.00518738 4.09941132 -3.66903687 3.16270447 C-2.46283539 0.130171 -2.46283539 0.130171 0 0 Z " fill="#080703" transform="translate(1261.84765625,973.90234375)"/>
<path d="M0 0 C2.31 0 4.62 0 7 0 C7 9.57 7 19.14 7 29 C18.88 29 30.76 29 43 29 C43 19.43 43 9.86 43 0 C44.98 0 46.96 0 49 0 C49 21.12 49 42.24 49 64 C47.02 64 45.04 64 43 64 C43 54.43 43 44.86 43 35 C31.12 35 19.24 35 7 35 C7 44.57 7 54.14 7 64 C4.69 64 2.38 64 0 64 C0 42.88 0 21.76 0 0 Z " fill="#040401" transform="translate(1101,974)"/>
<path d="M0 0 C11.55 0 23.1 0 35 0 C35 2.31 35 4.62 35 7 C25.76 7 16.52 7 7 7 C7 14.26 7 21.52 7 29 C14.92 29 22.84 29 31 29 C31 30.98 31 32.96 31 35 C23.08 35 15.16 35 7 35 C7 42.26 7 49.52 7 57 C16.24 57 25.48 57 35 57 C35 59.31 35 61.62 35 64 C23.45 64 11.9 64 0 64 C0 42.88 0 21.76 0 0 Z " fill="#080703" transform="translate(1052,974)"/>
<path d="M0 0 C13.86 0 27.72 0 42 0 C42 2.31 42 4.62 42 7 C36.06 7 30.12 7 24 7 C24 25.81 24 44.62 24 64 C22.02 64 20.04 64 18 64 C18 45.19 18 26.38 18 7 C12.06 7 6.12 7 0 7 C0 4.69 0 2.38 0 0 Z " fill="#020201" transform="translate(1292,974)"/>
<path d="M0 0 C3.031875 -0.061875 6.06375 -0.12375 9.1875 -0.1875 C10.60712036 -0.22846802 10.60712036 -0.22846802 12.05541992 -0.27026367 C18.00101636 -0.328956 21.42664179 0.51537828 25.8125 4.75 C27.55246428 8.04677442 27.44406988 10.32056389 27 14 C25.35195634 17.23504867 24.13297402 19.36270212 20.9375 21.16015625 C16.82104425 22.33706847 12.94200835 22.21163113 8.6875 22.125 C5.820625 22.08375 2.95375 22.0425 0 22 C0 14.74 0 7.48 0 0 Z " fill="#F9D857" transform="translate(1005,981)"/>
<path d="M0 0 C0.66 0 1.32 0 2 0 C2.31453125 1.03898438 2.6290625 2.07796875 2.953125 3.1484375 C5.07487873 10.08599741 7.18781697 16.93902082 10.10546875 23.59375 C11.3600554 26.96853331 12.12676565 30.50706258 13 34 C5.08 34 -2.84 34 -11 34 C-10.16526945 29.82634723 -9.1073452 26.1692071 -7.71484375 22.16796875 C-7.49429825 21.53135818 -7.27375275 20.89474762 -7.04652405 20.23884583 C-6.34656706 18.22065538 -5.64210815 16.2040707 -4.9375 14.1875 C-4.45998747 12.81325489 -3.9827708 11.43890695 -3.50585938 10.06445312 C-2.34066087 6.70843854 -1.17142161 3.35384822 0 0 Z " fill="#F0D153" transform="translate(1263,983)"/>
</svg>
